<svg width="57" height="48" viewBox="0 0 37 28" fill="none" xmlns="http://www.w3.org/2000/svg">
<rect width="37" height="28" fill="white"/>
<g clip-path="url(#clip0_0_1)">
<path d="M36.2885 6.51178C36.2885 6.51178 15.4874 9.60343 18.3852 27.0476C18.3852 27.0476 21.7324 19.4573 24.9224 16.1942C28.1128 12.9312 36.2885 6.51178 36.2885 6.51178Z" fill="#E3ED71"/>
<path d="M36.2883 6.51185C36.2883 6.51185 28.1127 12.9315 24.9223 16.1945C21.7323 19.4575 18.3851 27.0479 18.3851 27.0479C18.3851 27.0479 37.7747 28.9841 36.2883 6.51185Z" fill="#E3ED71"/>
<path d="M1.00873 6.51173C1.00873 6.51173 21.2833 9.60382 18.3855 27.048C18.3855 27.048 15.372 19.4574 12.182 16.1944C8.99154 12.9314 1.00873 6.51173 1.00873 6.51173Z" fill="#67AE7B"/>
<path d="M1.00856 6.51207C1.00856 6.51207 8.99135 12.9312 12.1818 16.1942C15.3718 19.4572 18.3851 27.0479 18.3851 27.0479C18.3851 27.0479 -0.477818 28.9843 1.00856 6.51207Z" fill="#67AE7B"/>
<path d="M18.3851 0.719574C18.3851 0.719574 4.26946 16.3965 18.385 27.0477C18.385 27.0477 16.3799 19.8031 16.4452 15.2403C16.5109 10.6772 18.3851 0.719574 18.3851 0.719574Z" fill="#93C77C"/>
<path d="M18.385 0.719455C18.385 0.719455 16.511 10.677 16.4453 15.2401C16.3799 19.8029 18.3851 27.0473 18.3851 27.0473C18.3851 27.0473 34.9404 15.9881 18.385 0.719455Z" fill="#93C77C"/>
</g>
<defs>
<clipPath id="clip0_0_1">
<rect width="37" height="28" fill="white"/>
</clipPath>
</defs>
</svg>
